<mxfile host="app.diagrams.net" modified="2020-06-16T13:01:42.792Z" agent="5.0 (Windows NT 10.0; Win64; x64) AppleWebKit/537.36 (KHTML, like Gecko) Chrome/83.0.4103.97 Safari/537.36 Edg/83.0.478.45" etag="PjBZs0K7yb088ok_OGMt" version="13.2.4" type="github">
  <diagram name="Page-1" id="2c0d36ab-eaac-3732-788b-9136903baeff">
    <mxGraphModel dx="1422" dy="763" grid="1" gridSize="10" guides="1" tooltips="1" connect="1" arrows="1" fold="1" page="1" pageScale="1.5" pageWidth="1169" pageHeight="827" background="#ffffff" math="0" shadow="0">
      <root>
        <mxCell id="0" />
        <mxCell id="1" parent="0" />
        <mxCell id="uUAIeoqgprKivKORN0hk-153" style="edgeStyle=orthogonalEdgeStyle;rounded=0;orthogonalLoop=1;jettySize=auto;html=1;entryX=0.5;entryY=0;entryDx=0;entryDy=0;" parent="1" source="2" target="uUAIeoqgprKivKORN0hk-134" edge="1">
          <mxGeometry relative="1" as="geometry" />
        </mxCell>
        <mxCell id="uUAIeoqgprKivKORN0hk-154" style="edgeStyle=orthogonalEdgeStyle;rounded=0;orthogonalLoop=1;jettySize=auto;html=1;entryX=0.5;entryY=0;entryDx=0;entryDy=0;" parent="1" source="2" target="uUAIeoqgprKivKORN0hk-140" edge="1">
          <mxGeometry relative="1" as="geometry" />
        </mxCell>
        <mxCell id="uUAIeoqgprKivKORN0hk-155" style="edgeStyle=orthogonalEdgeStyle;rounded=0;orthogonalLoop=1;jettySize=auto;html=1;" parent="1" source="2" target="uUAIeoqgprKivKORN0hk-136" edge="1">
          <mxGeometry relative="1" as="geometry" />
        </mxCell>
        <mxCell id="uUAIeoqgprKivKORN0hk-158" style="edgeStyle=orthogonalEdgeStyle;rounded=0;orthogonalLoop=1;jettySize=auto;html=1;entryX=0.5;entryY=0;entryDx=0;entryDy=0;" parent="1" source="2" target="uUAIeoqgprKivKORN0hk-139" edge="1">
          <mxGeometry relative="1" as="geometry" />
        </mxCell>
        <mxCell id="uUAIeoqgprKivKORN0hk-159" style="edgeStyle=orthogonalEdgeStyle;rounded=0;orthogonalLoop=1;jettySize=auto;html=1;entryX=0.5;entryY=0;entryDx=0;entryDy=0;" parent="1" source="2" target="uUAIeoqgprKivKORN0hk-137" edge="1">
          <mxGeometry relative="1" as="geometry" />
        </mxCell>
        <mxCell id="uUAIeoqgprKivKORN0hk-160" style="edgeStyle=orthogonalEdgeStyle;rounded=0;orthogonalLoop=1;jettySize=auto;html=1;" parent="1" source="2" target="uUAIeoqgprKivKORN0hk-141" edge="1">
          <mxGeometry relative="1" as="geometry" />
        </mxCell>
        <mxCell id="uUAIeoqgprKivKORN0hk-161" style="edgeStyle=orthogonalEdgeStyle;rounded=0;orthogonalLoop=1;jettySize=auto;html=1;entryX=0.5;entryY=0;entryDx=0;entryDy=0;" parent="1" source="2" target="uUAIeoqgprKivKORN0hk-138" edge="1">
          <mxGeometry relative="1" as="geometry" />
        </mxCell>
        <mxCell id="2" value="MPTickets" style="rounded=1;fillColor=#23445D;gradientColor=none;strokeColor=none;fontColor=#FFFFFF;fontStyle=1;fontFamily=Tahoma;fontSize=14" parent="1" vertex="1">
          <mxGeometry x="797" y="180" width="203" height="80" as="geometry" />
        </mxCell>
        <mxCell id="uUAIeoqgprKivKORN0hk-133" value="PHP" style="rounded=1;fillColor=#3333FF;gradientColor=none;strokeColor=none;fontColor=#FFFFFF;fontStyle=1;fontFamily=Tahoma;fontSize=14" parent="1" vertex="1">
          <mxGeometry x="20" y="20" width="90" height="40" as="geometry" />
        </mxCell>
        <mxCell id="uUAIeoqgprKivKORN0hk-134" value="Images" style="rounded=1;fillColor=#23445D;gradientColor=none;strokeColor=none;fontColor=#FFFFFF;fontStyle=1;fontFamily=Tahoma;fontSize=14" parent="1" vertex="1">
          <mxGeometry x="797" y="335.5" width="203" height="80" as="geometry" />
        </mxCell>
        <mxCell id="uUAIeoqgprKivKORN0hk-136" value="JavaScriptMain.js" style="rounded=1;fillColor=#23445D;gradientColor=none;strokeColor=none;fontColor=#FFFFFF;fontStyle=1;fontFamily=Tahoma;fontSize=14" parent="1" vertex="1">
          <mxGeometry x="1504" y="335.5" width="203" height="80" as="geometry" />
        </mxCell>
        <mxCell id="uUAIeoqgprKivKORN0hk-137" value="body" style="rounded=1;fillColor=#23445D;gradientColor=none;strokeColor=none;fontColor=#FFFFFF;fontStyle=1;fontFamily=Tahoma;fontSize=14" parent="1" vertex="1">
          <mxGeometry x="320" y="335.5" width="203" height="80" as="geometry" />
        </mxCell>
        <mxCell id="uUAIeoqgprKivKORN0hk-138" value="includes" style="rounded=1;fillColor=#23445D;gradientColor=none;strokeColor=none;fontColor=#FFFFFF;fontStyle=1;fontFamily=Tahoma;fontSize=14" parent="1" vertex="1">
          <mxGeometry x="1040" y="335.5" width="203" height="80" as="geometry" />
        </mxCell>
        <mxCell id="uUAIeoqgprKivKORN0hk-139" value="css" style="rounded=1;fillColor=#23445D;gradientColor=none;strokeColor=none;fontColor=#FFFFFF;fontStyle=1;fontFamily=Tahoma;fontSize=14" parent="1" vertex="1">
          <mxGeometry x="560" y="335.5" width="203" height="80" as="geometry" />
        </mxCell>
        <mxCell id="uUAIeoqgprKivKORN0hk-140" value="index.php" style="rounded=1;fillColor=#23445D;gradientColor=none;strokeColor=none;fontColor=#FFFFFF;fontStyle=1;fontFamily=Tahoma;fontSize=14" parent="1" vertex="1">
          <mxGeometry x="1280" y="335.5" width="203" height="80" as="geometry" />
        </mxCell>
        <mxCell id="uUAIeoqgprKivKORN0hk-141" value="BD" style="rounded=1;fillColor=#23445D;gradientColor=none;strokeColor=none;fontColor=#FFFFFF;fontStyle=1;fontFamily=Tahoma;fontSize=14" parent="1" vertex="1">
          <mxGeometry x="70" y="335.5" width="203" height="80" as="geometry" />
        </mxCell>
        <mxCell id="uUAIeoqgprKivKORN0hk-162" value="Dossier" style="rounded=1;fillColor=#3333FF;gradientColor=none;strokeColor=none;fontColor=#FFFFFF;fontStyle=1;fontFamily=Tahoma;fontSize=14" parent="1" vertex="1">
          <mxGeometry x="126.5" y="20" width="90" height="40" as="geometry" />
        </mxCell>
        <mxCell id="uUAIeoqgprKivKORN0hk-163" value="JS" style="rounded=1;fillColor=#3333FF;gradientColor=none;strokeColor=none;fontColor=#FFFFFF;fontStyle=1;fontFamily=Tahoma;fontSize=14" parent="1" vertex="1">
          <mxGeometry x="230" y="20" width="90" height="40" as="geometry" />
        </mxCell>
        <mxCell id="uUAIeoqgprKivKORN0hk-164" value="CSS" style="rounded=1;fillColor=#3333FF;gradientColor=none;strokeColor=none;fontColor=#FFFFFF;fontStyle=1;fontFamily=Tahoma;fontSize=14" parent="1" vertex="1">
          <mxGeometry x="340" y="20" width="90" height="40" as="geometry" />
        </mxCell>
        <mxCell id="uUAIeoqgprKivKORN0hk-165" value="png" style="rounded=1;fillColor=#3333FF;gradientColor=none;strokeColor=none;fontColor=#FFFFFF;fontStyle=1;fontFamily=Tahoma;fontSize=14" parent="1" vertex="1">
          <mxGeometry x="450" y="20" width="90" height="40" as="geometry" />
        </mxCell>
        <mxCell id="uUAIeoqgprKivKORN0hk-166" value="png" style="rounded=1;fillColor=#3333FF;gradientColor=none;strokeColor=none;fontColor=#FFFFFF;fontStyle=1;fontFamily=Tahoma;fontSize=14" parent="1" vertex="1">
          <mxGeometry x="560" y="20" width="90" height="40" as="geometry" />
        </mxCell>
        <mxCell id="uWq1KzhLS-u4s3BtoLt3-2" value="jpg" style="rounded=1;fillColor=#3333FF;gradientColor=none;strokeColor=none;fontColor=#FFFFFF;fontStyle=1;fontFamily=Tahoma;fontSize=14" vertex="1" parent="1">
          <mxGeometry x="673" y="20" width="90" height="40" as="geometry" />
        </mxCell>
      </root>
    </mxGraphModel>
  </diagram>
</mxfile>
